<svg xmlns="http://www.w3.org/2000/svg" viewBox="0 0 1000 540"><title>Car Meet illustration placeholder</title><rect width="1000" height="540" fill="#1a1e21"/><circle cx="785" cy="165" r="108" fill="#99313a"/><g transform="translate(70 185)"><path d="M0 310H1000M0 400H1000" stroke="#64676b" stroke-width="3"/>
    <g id="car"><path d="M30 75 75 58 116 15H240L298 57 350 75V119H30Z" fill="#aebfc9" stroke="#d8d9db" stroke-width="3"/><path d="m100 58 28-30h99l42 30Z" fill="#182127"/><circle cx="95" cy="114" r="28" fill="#101214" stroke="#79858d" stroke-width="8"/><circle cx="280" cy="114" r="28" fill="#101214" stroke="#79858d" stroke-width="8"/></g></g><use href="#car" transform="translate(530 275)"/><path d="M440 180v95m-22-70 22-22 24 22m-24 70-17 42m17-42 17 42" stroke="#bdb4a2" stroke-width="10"/><circle cx="440" cy="147" r="17" fill="#bdb4a2"/><text x="36" y="62" fill="#d0d1d3" font-family="Arial,sans-serif" font-size="22" letter-spacing="3">CAR MEET</text><text x="36" y="500" fill="#c0c4c7" font-family="Arial,sans-serif" font-size="18">JDM CULTURE / ILLUSTRATION PLACEHOLDER</text></svg>
